<?xml version="1.0" standalone="no"?>
<!DOCTYPE svg PUBLIC "-//W3C//DTD SVG 20010904//EN"
 "http://www.w3.org/TR/2001/REC-SVG-20010904/DTD/svg10.dtd">
<svg version="1.0" xmlns="http://www.w3.org/2000/svg"
 width="300.000000pt" height="102.000000pt" viewBox="0 0 300.000000 102.000000"
 preserveAspectRatio="xMidYMid meet">
<metadata>
Created by potrace 1.10, written by Peter Selinger 2001-2011
</metadata>
<g transform="translate(0.000000,102.000000) scale(0.100000,-0.100000)"
fill="#000000" stroke="none">
<path d="M2473 1000 c-58 -14 -97 -44 -123 -95 -22 -44 -25 -63 -25 -160 0
-92 3 -116 21 -150 32 -61 66 -75 273 -111 230 -41 221 -34 221 -185 0 -98 -2
-110 -22 -134 -28 -31 -79 -45 -173 -44 -105 0 -166 13 -186 38 -10 12 -21 48
-25 80 l-6 58 -56 -9 c-31 -5 -58 -11 -61 -14 -10 -10 17 -155 34 -180 34 -52
94 -68 262 -72 187 -5 254 7 299 52 49 49 67 125 62 260 -5 124 -18 160 -70
199 -44 32 -46 33 -216 62 -81 14 -159 28 -175 31 -50 10 -57 27 -57 133 0
124 7 132 120 140 44 4 111 4 151 1 84 -6 109 -27 109 -91 0 -44 5 -46 77 -28
l45 12 -6 50 c-13 91 -52 137 -137 156 -50 12 -288 13 -336 1z"/>
<path d="M30 515 l0 -487 268 4 c247 4 271 6 315 26 39 17 52 30 69 69 19 41
22 67 23 173 0 111 -3 130 -22 166 -20 38 -65 70 -122 86 -8 2 4 9 26 16 71
21 78 36 81 186 3 156 -7 183 -86 219 -43 20 -67 22 -299 25 l-253 4 0 -487z
m501 356 c16 -19 19 -40 19 -116 0 -51 -3 -101 -6 -110 -15 -38 -63 -49 -226
-53 l-158 -4 0 157 0 156 176 -3 c171 -3 176 -4 195 -27z m-82 -370 c74 -7 88
-12 108 -35 21 -25 23 -36 23 -149 0 -140 -8 -160 -68 -177 -20 -5 -108 -10
-194 -10 l-158 0 0 190 0 190 103 -1 c56 0 140 -4 186 -8z"/>
<path d="M780 950 l0 -50 125 0 125 0 0 -435 0 -435 65 0 65 0 0 435 0 435
125 0 125 0 0 50 0 50 -315 0 -315 0 0 -50z"/>
<path d="M1520 516 l0 -486 65 0 65 0 0 170 0 170 163 0 c194 0 249 12 296 65
39 45 51 88 58 211 7 118 -9 218 -41 267 -11 18 -44 43 -71 57 -48 24 -57 25
-292 29 l-243 3 0 -486z m463 373 c45 -20 52 -50 52 -210 l0 -149 -28 -27 -27
-28 -165 -3 -165 -3 0 215 0 216 155 0 c91 0 164 -4 178 -11z"/>
</g>
</svg>
